<?xml version="1.0" encoding="UTF-8" standalone="no"?>
<!-- Created with Inkscape (http://www.inkscape.org/) -->

<svg
   version="1.1"
   id="svg1"
   width="220"
   height="220"
   viewBox="0 0 220 220"
   sodipodi:docname="bug-triage-bot.svg"
   xml:space="preserve"
   inkscape:version="1.4.3 (0d15f75, 2025-12-25)"
   inkscape:export-filename="bug-triage-bot.png"
   inkscape:export-xdpi="1000"
   inkscape:export-ydpi="1000"
   xmlns:inkscape="http://www.inkscape.org/namespaces/inkscape"
   xmlns:sodipodi="http://sodipodi.sourceforge.net/DTD/sodipodi-0.dtd"
   xmlns="http://www.w3.org/2000/svg"
   xmlns:svg="http://www.w3.org/2000/svg"><defs
     id="defs1" /><sodipodi:namedview
     id="namedview1"
     pagecolor="#ffffff"
     bordercolor="#000000"
     borderopacity="0.25"
     inkscape:showpageshadow="2"
     inkscape:pageopacity="0.0"
     inkscape:pagecheckerboard="0"
     inkscape:deskcolor="#d1d1d1"
     inkscape:zoom="5.6568542"
     inkscape:cx="120.20815"
     inkscape:cy="121.00365"
     inkscape:window-width="3840"
     inkscape:window-height="2071"
     inkscape:window-x="2391"
     inkscape:window-y="-9"
     inkscape:window-maximized="1"
     inkscape:current-layer="g1" /><g
     inkscape:groupmode="layer"
     inkscape:label="Image"
     id="g1"><g
       id="g7"
       transform="translate(-1.3121918,10.189878)"><path
         style="opacity:1;fill:#e51f3d;fill-opacity:1;stroke-width:7.93701;stroke-linecap:round;stroke-linejoin:round;stroke-dasharray:15.874, 15.874;stroke-dashoffset:6.34961"
         id="path6"
         sodipodi:type="arc"
         sodipodi:cx="97.625"
         sodipodi:cy="103"
         sodipodi:rx="11.875"
         sodipodi:ry="11.25"
         sodipodi:start="0"
         sodipodi:end="0.041744776"
         sodipodi:open="true"
         sodipodi:arc-type="chord"
         d="m 109.5,103 a 11.875,11.25 0 0 1 -0.0104,0.46949 z" /><path
         style="opacity:1;fill:#001f3d;fill-opacity:1;stroke-width:7.93701;stroke-linecap:round;stroke-linejoin:round;stroke-dasharray:15.874, 15.874;stroke-dashoffset:6.34961"
         d="m 57.375,125.125 c -1.281706,-5.80295 0.529956,-14.48717 3.259407,-19.76609 C 77.738799,72.278 75.725374,63.922542 92.625,52.25 c 12.37451,-8.547051 28.01651,-11.547377 44.75,-5.75 16.12606,5.586928 24.17315,18.324768 27.125,30.625 2.49437,10.393948 0.72851,19.840106 -2.75,28.75 -4.05973,10.39863 -4.34085,21.49854 -9.875,32 -2.81513,5.34192 -10.65196,22.14776 -33.92678,17.40533 -5.76034,-1.17372 -15.29978,-8.73346 -15.29978,-8.73346 0,0 -12.463161,1.89426 -18.67951,1.32684 -4.454878,-0.40664 -9.316346,-0.81065 -12.993087,-3.35876 C 64.486996,140.01795 59.559271,135.01433 57.375,125.125 Z"
         id="path5"
         sodipodi:nodetypes="sssssssscsss" /><circle
         style="opacity:1;fill:#ffffff;fill-opacity:1;stroke-width:7.93701;stroke-linecap:round;stroke-linejoin:round;stroke-dasharray:15.874, 15.874;stroke-dashoffset:6.34961"
         id="path7"
         cx="96"
         cy="102.75"
         r="14.5" /><circle
         style="fill:#ffffff;fill-opacity:1;stroke-width:7.93701;stroke-linecap:round;stroke-linejoin:round;stroke-dasharray:15.874, 15.874;stroke-dashoffset:6.34961"
         id="path7-5"
         cx="128.25"
         cy="100.625"
         r="14.5" /><path
         style="fill:#e87a00;fill-opacity:1"
         d="m 109.04323,146.08201 c -3.50205,-0.88793 -6.24093,-2.81553 -7.81366,-5.4992 -1.442559,-2.46154 -1.950822,-2.3612 11.48189,-2.26672 L 124.64,138.4 l -0.0837,0.76216 c -0.49746,4.52992 -9.35533,8.48111 -15.51307,6.91985 z M 87.342409,135.71673 c -5.362803,-1.71617 -9.529077,-6.07929 -10.137665,-10.61666 l -0.168563,-1.25673 29.561909,-0.0817 L 136.16,123.68 v -0.8 -0.8 l -29.58215,-0.0817 c -23.178239,-0.064 -29.636909,-0.1679 -29.8351,-0.48 -0.707133,-1.11353 -0.15609,-11.79215 1.044346,-20.23832 2.357211,-16.585138 5.11193,-23.529735 11.132582,-28.065034 l 1.079676,-0.813311 -0.715049,-2.200828 C 86.810432,62.586567 83.151141,58.735995 78.927382,59.30252 c -1.667231,0.223623 -1.928445,0.551984 -1.33872,1.682846 2.416371,4.633648 -3.793551,9.457336 -7.958023,6.181562 -3.151401,-2.478893 -2.074976,-8.257124 1.701356,-9.132848 0.455403,-0.105607 1.480796,-0.601462 2.27865,-1.1019 7.355668,-4.613694 15.889728,0.130154 19.198709,10.672031 0.923425,2.941879 0.85487,2.883142 2.728002,2.337342 7.770474,-2.264187 29.222164,-2.078922 34.919504,0.301578 l 1.03111,0.430828 0.5138,-1.81698 c 3.69376,-13.06254 14.8741,-17.587238 23.95228,-9.693523 4.29525,3.734826 0.073,10.922648 -5.18126,8.820328 -2.91371,-1.165835 -4.51903,-5.36185 -2.8454,-7.437347 1.93199,-2.395891 -4.97461,-1.259219 -7.46189,1.22806 -1.88391,1.883908 -5.83749,10.447394 -5.06609,10.973177 6.41278,4.370915 8.87304,9.450688 11.33914,23.412324 1.73353,9.814202 2.82002,22.964812 2.06205,24.958432 l -0.30476,0.80157 h -4.82917 -4.82918 l 0.10126,0.88 0.10125,0.88 4.48,0.16 4.48,0.16 -0.0267,1.28 c -0.093,4.45793 -5.42368,9.65995 -10.97836,10.71337 -3.37168,0.63943 -47.559262,0.39323 -49.652531,-0.27664 z M 99.193647,108.4 c 6.033873,-3.08276 3.875193,-12.161247 -2.883185,-12.125423 -2.680542,0.01421 -4.654092,1.285401 -5.783785,3.725421 -2.499165,5.397942 3.383476,11.099382 8.66697,8.400002 z m 32.252263,0.22472 c 6.1826,-2.58325 4.7009,-11.819777 -1.96418,-12.244178 -3.04541,-0.193917 -5.30026,1.158172 -6.42646,3.853548 -2.14887,5.14297 3.24767,10.53951 8.39064,8.39063 z"
         id="path4" /></g></g></svg>
