<svg xmlns="http://www.w3.org/2000/svg" viewBox="0 0 1024 1024" width="1024" height="1024">
  <path fill="#fefefe" d="m 280.2351,796.01454 c -47.25648,-2.19213 -70.50739,-41.58037 -70.50739,-41.58037 L 473.46847,605.27943 c 15.31025,-8.65848 56.50248,-9.69964 78.05383,1.55584 27.80824,14.52322 99.31315,55.2023 99.31315,55.2023 0,0 -340.21653,129.02196 -347.53741,131.31971 -7.32088,2.29775 -16.25912,2.97288 -23.06294,2.65726 z M 544.02212,729.27067 679.53675,677.3674 c 0,0 88.33579,51.58937 133.59555,77.61819 0,0 -26.95947,35.47729 -62.09418,40.26151 -4.05413,0.55204 -22.91716,1.33249 -28.12589,-0.57189 z M 206.35465,643.57024 c 14.82859,-13.25554 149.25222,-128.90309 149.25222,-128.90309 0,0 -17.81312,94.66203 -25.19542,142.07272 -44.7644,25.64171 -87.45429,51.68852 -132.6664,75.99058 0,0 -13.87728,-24.72949 -10.33031,-51.60096 1.54312,-11.69056 8.72759,-28.43028 18.93991,-37.55925 z m 355.29996,-63.94931 c -16.36916,-11.52968 -38.96655,-41.06207 -39.04884,-68.72716 l -0.32046,-107.73762 c 24.5147,20.45177 295.94759,241.39742 295.94759,241.39742 11.435,10.08001 19.43431,32.34106 18.90795,46.2998 -0.62314,16.52498 -11.03415,41.21557 -11.03415,41.21557 0,0 -245.63101,-139.1913 -264.45209,-152.44801 z M 426.22,287.35742 c 4.43322,-16.91663 15.162,-32.93992 26.03352,-41.30011 18.04753,-13.87852 40.49471,-18.0761 46.81673,-17.73197 0,0 0.23212,212.63549 -0.66228,284.75568 -0.27148,21.89128 -20.62187,56.24306 -43.72979,70.54196 -33.87989,20.96446 -97.56408,57.79811 -97.56408,57.79811 C 380.2628,522.4691 424.76919,292.89355 426.22,287.35742 Z m 95.50766,85.02771 0.30336,-144.4727 c 11.94416,0.28773 24.89486,4.91959 35.40933,10.00441 20.75276,10.03609 35.24596,26.97577 39.8965,51.09645 10.87807,56.42063 22.88295,112.03069 32.79221,168.57462 z"/>
</svg>
